<?xml version="1.0" encoding="iso-8859-1"?>
<!-- Generator: Adobe Illustrator 19.0.0, SVG Export Plug-In . SVG Version: 6.00 Build 0)  -->
<svg version="1.1" id="Layer_1" xmlns="http://www.w3.org/2000/svg" xmlns:xlink="http://www.w3.org/1999/xlink" x="0px" y="0px"
	 viewBox="0 0 512 512" style="enable-background:new 0 0 512 512;" xml:space="preserve">
<polygon style="fill:#4A89DC;" points="103.142,153 59.142,415 112.642,415 112.642,139.5 "/>
<rect x="118.141" y="13" style="fill:#5D9CEC;" width="333" height="421"/>
<polygon style="fill:#E6E9ED;" points="315.141,133 260.641,238 374.641,238 "/>
<polygon style="fill:#CCD1D9;" points="232.126,171.609 193.642,245.75 274.141,245.75 "/>
<path d="M265.766,192.25l-25.766-42.906l-64,106.656h53.328H304h96l-85.328-149.344L265.766,192.25z M213.673,234.656l26.328-43.859
	l13.609,22.703l-12.094,21.156H213.673z M266.094,234.656l48.578-85l48.562,85H266.094z"/>
<path d="M330.672,341.344h-85.344c-5.875,0-10.656,4.766-10.656,10.656s4.781,10.656,10.656,10.656h85.344
	c5.875,0,10.656-4.766,10.656-10.656S336.547,341.344,330.672,341.344z"/>
<path d="M373.328,298.656H202.673c-5.906,0-10.672,4.781-10.672,10.688c0,5.875,4.766,10.656,10.672,10.656h170.656
	c5.906,0,10.672-4.781,10.672-10.656C384,303.438,379.234,298.656,373.328,298.656z"/>
<path d="M458.672,0H117.329c-5.25,0-9.625,3.812-10.5,8.828l0,0l-0.094,0.609c0,0.062,0,0.109-0.016,0.156L42.767,478.562l0,0
	c-0.062,0.469-0.094,0.938-0.094,1.438c0,5.891,4.781,10.656,10.656,10.656c5.406,0,9.859-4,10.562-9.219l0,0l7.5-54.781h35.281
	v8.453l0,0v66.234c0,5.875,4.781,10.656,10.656,10.656c5.906,0,10.672-4.781,10.672-10.656V448h320v53.344
	c0,5.875,4.766,10.656,10.672,10.656c5.891,0,10.656-4.781,10.656-10.656v-64v-2.234V10.656C469.328,4.781,464.547,0,458.672,0z
	 M74.298,405.344l32.375-236.688v236.688H74.298z M128.001,21.344h320v405.312h-320V21.344z"/>
<g>
</g>
<g>
</g>
<g>
</g>
<g>
</g>
<g>
</g>
<g>
</g>
<g>
</g>
<g>
</g>
<g>
</g>
<g>
</g>
<g>
</g>
<g>
</g>
<g>
</g>
<g>
</g>
<g>
</g>
</svg>
