<?xml version="1.0" encoding="iso-8859-1"?>
<!-- Generator: Adobe Illustrator 19.0.0, SVG Export Plug-In . SVG Version: 6.00 Build 0)  -->
<svg version="1.1" id="Layer_1" xmlns="http://www.w3.org/2000/svg" xmlns:xlink="http://www.w3.org/1999/xlink" x="0px" y="0px"
	 viewBox="0 0 512 512" style="enable-background:new 0 0 512 512;" xml:space="preserve">
<rect x="101" y="13" style="fill:#A0D468;" width="306" height="382"/>
<path style="fill:#E6E9ED;" d="M279.5,123c-0.5,2-46.5,89.5-46.5,89.5h96.5C329,210.5,280,121,279.5,123z"/>
<path style="fill:#CCD1D9;" d="M209.672,157.312C209.359,158.547,181,212.5,181,212.5h59.5
	C240.188,211.266,209.969,156.078,209.672,157.312z"/>
<rect x="192" y="402.69" style="fill:#E6E9ED;" width="129" height="97.31"/>
<path d="M405.344,0H106.672C100.781,0,96,4.781,96,10.656v384c0,5.906,4.781,10.688,10.672,10.688h74.672v85.312h-42.672
	c-5.891,0-10.672,4.781-10.672,10.688c0,5.875,4.781,10.656,10.672,10.656h42.672h149.328h42.672
	c5.875,0,10.656-4.781,10.656-10.656c0-5.906-4.781-10.688-10.656-10.688h-42.672v-85.312h74.672
	c5.875,0,10.656-4.781,10.656-10.688v-384C416,4.781,411.219,0,405.344,0z M309.344,490.656H202.672v-85.312h106.672V490.656z
	 M394.672,384h-64H181.344h-64V21.344h21.328c0,5.875,4.766,10.656,10.672,10.656h213.328c5.891,0,10.672-4.781,10.672-10.656
	h21.328V384z"/>
<path d="M236.938,169.375l-22.078-36.812L160,224h45.719h64H352L278.859,96L236.938,169.375z M197.688,202.656l17.172-28.625
	l9.953,16.562l-6.906,12.062h-20.219V202.656z M242.469,202.656L278.859,139l36.391,63.656H242.469z"/>
<path d="M288.703,320h-64c-5.891,0-10.672,4.781-10.672,10.656c0,5.906,4.781,10.688,10.672,10.688h64
	c5.891,0,10.672-4.781,10.672-10.688C299.375,324.781,294.594,320,288.703,320z"/>
<path d="M331.375,277.344H182.031c-5.875,0-10.656,4.766-10.656,10.656s4.781,10.656,10.656,10.656h149.344
	c5.875,0,10.656-4.766,10.656-10.656S337.25,277.344,331.375,277.344z"/>
<g>
</g>
<g>
</g>
<g>
</g>
<g>
</g>
<g>
</g>
<g>
</g>
<g>
</g>
<g>
</g>
<g>
</g>
<g>
</g>
<g>
</g>
<g>
</g>
<g>
</g>
<g>
</g>
<g>
</g>
</svg>
