<?xml version="1.0" encoding="iso-8859-1"?>
<!-- Generator: Adobe Illustrator 19.0.0, SVG Export Plug-In . SVG Version: 6.00 Build 0)  -->
<svg version="1.1" id="Layer_1" xmlns="http://www.w3.org/2000/svg" xmlns:xlink="http://www.w3.org/1999/xlink" x="0px" y="0px"
	 viewBox="0 0 512 512" style="enable-background:new 0 0 512 512;" xml:space="preserve">
<rect x="314.671" y="34" style="fill:#FFCE54;" width="33.34" height="99.33"/>
<rect x="205.021" y="12.688" style="fill:#F6BB42;" width="99.31" height="33.34"/>
<g>
	<rect x="166.671" y="34" style="fill:#FFCE54;" width="33.34" height="99.33"/>
	<rect x="56.001" y="141.33" style="fill:#FFCE54;" width="397.33" height="350.67"/>
</g>
<polygon style="fill:#DA4453;" points="190.923,292.031 137.517,394.906 249.234,394.906 "/>
<polygon style="fill:#ED5564;" points="289.22,243.812 213.548,389.531 371.798,389.531 "/>
<path d="M468.954,128H363.063V42.656L299.063,0h-85.344l-64,42.656V128H42.282l0.781,341.344c0,23.562,19.094,42.656,42.656,42.656
	h341.344c23.562,0,42.656-19.094,42.656-42.656L468.954,128z M299.063,128h-85.344V64h85.344V128z M320.392,39.859l21.328,14.234
	V128h-21.328V39.859z M299.063,21.344v21.312h-85.344V21.344H299.063z M171.063,54.094l21.328-14.234V128h-21.328V54.094z
	 M427.063,490.656H85.72c-11.766,0-21.328-9.562-21.328-21.312v-0.031v-0.031l-0.719-319.938h384l0.719,320.031
	C448.376,481.125,438.813,490.656,427.063,490.656z"/>
<path d="M228.844,324.938l-31.875-54l-79.25,134.156h66.031h92.453h118.859L289.407,217.281L228.844,324.938z M155.094,383.766
	l41.875-70.875l19.797,33.516l-21.016,37.359H155.094z M220.234,383.766l69.172-122.984l69.172,122.984H220.234z"/>
<g>
</g>
<g>
</g>
<g>
</g>
<g>
</g>
<g>
</g>
<g>
</g>
<g>
</g>
<g>
</g>
<g>
</g>
<g>
</g>
<g>
</g>
<g>
</g>
<g>
</g>
<g>
</g>
<g>
</g>
</svg>
