<?xml version="1.0" encoding="iso-8859-1"?>
<!-- Generator: Adobe Illustrator 19.0.0, SVG Export Plug-In . SVG Version: 6.00 Build 0)  -->
<svg version="1.1" id="Layer_1" xmlns="http://www.w3.org/2000/svg" xmlns:xlink="http://www.w3.org/1999/xlink" x="0px" y="0px"
	 viewBox="0 0 512 512" style="enable-background:new 0 0 512 512;" xml:space="preserve">
<rect x="42.656" y="204" style="fill:#FFCE54;" width="430.69" height="296"/>
<rect x="227.996" y="419.67" style="fill:#656D78;" width="56" height="75"/>
<g>
	<rect x="131.996" y="288" style="fill:#4FC2E9;" width="33.34" height="38.672"/>
	<rect x="236.826" y="288" style="fill:#4FC2E9;" width="33.33" height="38.672"/>
	<rect x="342.826" y="289.77" style="fill:#4FC2E9;" width="33.33" height="38.672"/>
</g>
<rect x="19" y="138.42" style="fill:#FFCE54;" width="469" height="64"/>
<rect x="80.636" y="8.02" style="fill:#ED5564;" width="350.73" height="90.67"/>
<path d="M341.359,42.688H170.64c-5.891,0-10.672,4.781-10.672,10.656c0,5.906,4.781,10.688,10.672,10.688h170.719
	c5.891,0,10.672-4.781,10.672-10.688C352.031,47.469,347.25,42.688,341.359,42.688z"/>
<path d="M501.406,128.375h-85.344v-21.672h21.328V0H74.609v106.703h21.328v21.672H10.594v84.688h21.344V512h181.25h85.625h181.25
	V213.062h21.343V128.375z M394.718,128.375h-53.359v-21.672h53.359V128.375z M245.328,106.703v21.672h-53.359v-21.672H245.328z
	 M266.672,106.703h53.359v21.672h-53.359V106.703z M95.937,21.344h320.125V85.36H95.937V21.344z M117.281,106.703h53.359v21.672
	h-53.359C117.281,128.375,117.281,106.703,117.281,106.703z M234.531,490.656V426.64h42.938v64.016H234.531z M458.734,490.656
	H298.812v-85.359h-85.625v85.359H53.265V213.062h405.469V490.656z M480.062,191.719H31.937v-42h448.125V191.719z"/>
<path d="M181.312,341.109v-64.016h-64.031v64.016H181.312z M138.625,298.438h21.344v21.344h-21.344V298.438z"/>
<path d="M288,277.094h-64v64.016h64V277.094z M266.672,319.781h-21.344v-21.344h21.344V319.781z"/>
<path d="M394.718,277.094h-64.031v64.016h64.031V277.094z M373.375,319.781h-21.344v-21.344h21.344V319.781z"/>
<g>
</g>
<g>
</g>
<g>
</g>
<g>
</g>
<g>
</g>
<g>
</g>
<g>
</g>
<g>
</g>
<g>
</g>
<g>
</g>
<g>
</g>
<g>
</g>
<g>
</g>
<g>
</g>
<g>
</g>
</svg>
