<?xml version="1.0" encoding="iso-8859-1"?>
<!-- Generator: Adobe Illustrator 19.0.0, SVG Export Plug-In . SVG Version: 6.00 Build 0)  -->
<svg version="1.1" id="Layer_1" xmlns="http://www.w3.org/2000/svg" xmlns:xlink="http://www.w3.org/1999/xlink" x="0px" y="0px"
	 viewBox="0 0 512 512" style="enable-background:new 0 0 512 512;" xml:space="preserve">
<rect x="10.656" y="70.914" style="fill:#4FC2E9;" width="489.34" height="257.77"/>
<polygon style="fill:#CCD1D9;" points="93.266,191.852 56.656,258.32 128,258.32 "/>
<g>
	<polygon style="fill:#E6E9ED;" points="164,161.57 112,255.992 213.344,255.992 	"/>
	<rect x="217.34" y="328.68" style="fill:#E6E9ED;" width="74.66" height="128.91"/>
</g>
<path d="M512,63.992h-42.656c5.875,0,10.656-4.766,10.656-10.656c0-5.89-4.781-10.672-10.656-10.672h-42.688
	c-5.875,0-10.656,4.781-10.656,10.672s4.781,10.656,10.656,10.656h-85.312c5.875,0,10.656-4.766,10.656-10.656
	s-4.781-10.672-10.656-10.672h-42.688c-5.875,0-10.656,4.781-10.656,10.672s4.781,10.656,10.656,10.656h-85.312
	c5.875,0,10.656-4.766,10.656-10.656s-4.781-10.672-10.656-10.672h-42.688c-5.875,0-10.656,4.781-10.656,10.672
	s4.781,10.656,10.656,10.656H85.344C91.219,63.992,96,59.227,96,53.336c0-5.891-4.781-10.672-10.656-10.672H42.656
	C36.781,42.664,32,47.445,32,53.336s4.781,10.656,10.656,10.656H0v277.344h213.344v128h85.312v-128H512V63.992z M277.344,447.992
	h-42.688V341.336h42.688V447.992z M490.656,319.992H21.344V85.336h469.312V319.992z"/>
<path d="M152.375,266.664h82.281l-73.125-128l-41.938,73.359l-22.062-36.781l-54.875,91.422h45.719H152.375z M197.906,245.336
	H125.14l36.391-63.672L197.906,245.336z M80.344,245.336l17.188-28.625l9.938,16.562l-6.906,12.062h-20.22V245.336z"/>
<path d="M288,202.664h85.344c5.875,0,10.656-4.766,10.656-10.672c0-5.875-4.781-10.656-10.656-10.656H288
	c-5.891,0-10.656,4.781-10.656,10.656C277.344,197.898,282.109,202.664,288,202.664z"/>
<path d="M288,245.336h149.344c5.875,0,10.656-4.781,10.656-10.672s-4.781-10.672-10.656-10.672H288
	c-5.891,0-10.656,4.781-10.656,10.672S282.109,245.336,288,245.336z"/>
<g>
</g>
<g>
</g>
<g>
</g>
<g>
</g>
<g>
</g>
<g>
</g>
<g>
</g>
<g>
</g>
<g>
</g>
<g>
</g>
<g>
</g>
<g>
</g>
<g>
</g>
<g>
</g>
<g>
</g>
</svg>
