<?xml version="1.0" encoding="iso-8859-1"?>
<!-- Generator: Adobe Illustrator 19.0.0, SVG Export Plug-In . SVG Version: 6.00 Build 0)  -->
<svg version="1.1" id="Layer_1" xmlns="http://www.w3.org/2000/svg" xmlns:xlink="http://www.w3.org/1999/xlink" x="0px" y="0px"
	 viewBox="0 0 512 512" style="enable-background:new 0 0 512 512;" xml:space="preserve">
<g>
	<rect x="61.992" y="12.672" style="fill:#FFCE54;" width="387.33" height="220.66"/>
	<rect x="65.992" y="279" style="fill:#FFCE54;" width="387.33" height="220.66"/>
</g>
<path style="fill:#ED5564;" d="M274.539,80.281l-37.297,84.109c0,0,68.016,1.469,83.375,0
	C335.977,162.938,274.539,80.281,274.539,80.281z"/>
<path style="fill:#DA4453;" d="M208.195,119.641l-19.969,45.047c0,0,36.438,0.781,44.672,0
	C241.133,163.938,208.195,119.641,208.195,119.641z"/>
<path d="M269.789,181.328h82.75L278.977,52.594l-42.156,73.781l-22.203-37l-55.172,91.953h45.984H269.789z M315.773,160H242.18
	l36.797-64.406L315.773,160z M197.133,160l17.484-29.156l10.062,16.781L217.617,160H197.133z"/>
<path d="M309.336,405.328H202.664c-5.891,0-10.672,4.766-10.672,10.672c0,5.891,4.781,10.656,10.672,10.656h106.672
	c5.891,0,10.656-4.766,10.656-10.656C319.992,410.094,315.227,405.328,309.336,405.328z"/>
<path d="M149.336,384h213.328c5.891,0,10.672-4.781,10.672-10.672s-4.781-10.672-10.672-10.672H149.336
	c-5.891,0-10.672,4.781-10.672,10.672S143.445,384,149.336,384z"/>
<path d="M447.992,0h-384c-5.891,0-10.656,4.781-10.656,10.656v224c0,5.906,4.766,10.672,10.656,10.672h384
	c5.891,0,10.672-4.766,10.672-10.672v-224C458.664,4.781,453.883,0,447.992,0z M437.336,224H74.664V21.328h362.672V224z"/>
<path d="M447.992,266.656h-384c-5.891,0-10.656,4.781-10.656,10.672v224c0,5.891,4.766,10.672,10.656,10.672h384
	c5.891,0,10.672-4.781,10.672-10.672v-224C458.664,271.438,453.883,266.656,447.992,266.656z M437.336,490.656H74.664V288h362.672
	V490.656z"/>
<g>
</g>
<g>
</g>
<g>
</g>
<g>
</g>
<g>
</g>
<g>
</g>
<g>
</g>
<g>
</g>
<g>
</g>
<g>
</g>
<g>
</g>
<g>
</g>
<g>
</g>
<g>
</g>
<g>
</g>
</svg>
