<?xml version="1.0" encoding="iso-8859-1"?>
<!-- Generator: Adobe Illustrator 19.0.0, SVG Export Plug-In . SVG Version: 6.00 Build 0)  -->
<svg version="1.1" id="Layer_1" xmlns="http://www.w3.org/2000/svg" xmlns:xlink="http://www.w3.org/1999/xlink" x="0px" y="0px"
	 viewBox="0 0 512 512" style="enable-background:new 0 0 512 512;" xml:space="preserve">
<rect x="11" y="110" style="fill:#FFCE54;" width="487" height="298"/>
<path style="fill:#ED5564;" d="M150.875,174.234l-37.312,84.109c0,0,68.031,1.469,83.375,0
	C212.312,256.891,150.875,174.234,150.875,174.234z"/>
<path style="fill:#DA4453;" d="M84.531,213.594l-19.969,45.047c0,0,36.438,0.781,44.656,0
	C117.469,257.891,84.531,213.594,84.531,213.594z"/>
<path d="M501.344,96H10.656C4.781,96,0,100.781,0,106.656v298.688C0,411.219,4.781,416,10.656,416h490.688
	c5.875,0,10.656-4.781,10.656-10.656V106.656C512,100.781,507.219,96,501.344,96z M490.656,394.656H21.344V117.344h469.312V394.656z
	"/>
<path d="M140.188,266.656h73.156L148.313,152.89l-37.25,65.203l-19.625-32.688l-48.781,81.25h40.656L140.188,266.656
	L140.188,266.656z M148.312,195.891l28.25,49.453h-56.5L148.312,195.891z M80.344,245.344l11.094-18.484l7.469,12.484l-3.406,6
	H80.344z"/>
<path d="M288,373.344h170.656c5.906,0,10.688-4.781,10.688-10.688c0-5.875-4.781-10.656-10.688-10.656H288
	c-5.891,0-10.656,4.781-10.656,10.656C277.344,368.562,282.109,373.344,288,373.344z"/>
<path d="M373.344,330.656h85.312c5.906,0,10.688-4.766,10.688-10.656s-4.781-10.656-10.688-10.656h-85.312
	c-5.906,0-10.688,4.766-10.688,10.656S367.438,330.656,373.344,330.656z"/>
<g>
</g>
<g>
</g>
<g>
</g>
<g>
</g>
<g>
</g>
<g>
</g>
<g>
</g>
<g>
</g>
<g>
</g>
<g>
</g>
<g>
</g>
<g>
</g>
<g>
</g>
<g>
</g>
<g>
</g>
</svg>
