<?xml version="1.0" encoding="iso-8859-1"?>
<!-- Generator: Adobe Illustrator 19.0.0, SVG Export Plug-In . SVG Version: 6.00 Build 0)  -->
<svg version="1.1" id="Layer_1" xmlns="http://www.w3.org/2000/svg" xmlns:xlink="http://www.w3.org/1999/xlink" x="0px" y="0px"
	 viewBox="0 0 511.999 511.999" style="enable-background:new 0 0 511.999 511.999;" xml:space="preserve">
<polygon style="fill:#656D78;" points="416.999,400.999 276.999,383.999 149.328,388.937 45,422.67 30.656,441.998 299.999,441.998 
	484.998,441.998 488.998,434.998 "/>
<polygon style="fill:#4FC2E9;" points="451.342,207.999 381.343,139.328 311.343,110 259.343,105.328 189.999,115.328 
	116.656,149.328 74.656,187.328 35.344,286.671 30.656,422.67 166.656,383.999 279.343,380.671 403.343,399.999 478.654,419.998 
	478.654,302.671 "/>
<polygon style="fill:#CCD1D9;" points="214.718,233.827 179.421,301.811 253.249,301.811 "/>
<polygon style="fill:#E6E9ED;" points="279.655,198.406 229.687,294.702 334.233,294.702 "/>
<path d="M510.529,444.404c0,0-5.375-8.25-19.875-19.328l0.031-99.765c0-118.781-88.249-216.937-202.765-232.499
	c0.047-0.719,0.078-1.438,0.078-2.156c0-17.688-14.312-32-32-32c-17.672,0-32,14.312-32,32c0,0.719,0.031,1.438,0.078,2.156
	C109.594,108.375,21.344,206.53,21.344,325.311l-0.016,99.78C6.86,436.154,1.469,444.404,1.469,444.404
	c-3.188,4.906-1.016,8.938,4.844,8.938h499.373C511.545,453.342,513.717,449.311,510.529,444.404z M245.343,90.656
	c0-5.891,4.781-10.688,10.656-10.688c5.875,0,10.672,4.797,10.672,10.688c0,0.062-0.016,0.156-0.016,0.234
	c-3.531-0.156-7.078-0.234-10.656-0.234c-3.562,0-7.125,0.078-10.656,0.234C245.343,90.812,245.343,90.719,245.343,90.656z
	 M42.687,325.311c0-28.812,5.625-56.75,16.75-83.031c10.75-25.406,26.125-48.218,45.719-67.812
	c19.609-19.594,42.421-34.984,67.812-45.734c26.297-11.109,54.234-16.75,83.031-16.75c28.812,0,56.75,5.641,83.031,16.75
	c25.406,10.75,48.219,26.14,67.828,45.734c19.594,19.594,34.983,42.406,45.733,67.812c11.109,26.281,16.75,54.219,16.75,83.031
	l-0.016,85.827c-36.638-20.592-102.107-43.139-213.326-43.139c-111.218,0-176.702,22.547-213.343,43.155L42.687,325.311z
	 M49.219,431.998c3.719-2.203,7.812-4.469,12.328-6.734c20.469-10.266,44.953-18.515,72.796-24.468
	c35.531-7.609,76.469-11.453,121.656-11.453c43.625,0,83.328,3.594,117.969,10.688c27.5,5.625,51.844,13.437,72.405,23.249
	c6.156,2.938,11.609,5.875,16.406,8.719L49.219,431.998L49.219,431.998z"/>
<path d="M362.687,314.655l-81.281-142.218l-46.594,81.515l-24.531-40.891l-60.953,101.594h50.797h71.125H362.687z M325.905,293.327
	h-89.016l44.516-77.891L325.905,293.327z M186.999,293.327l23.281-38.797l12.406,20.656l-10.375,18.141H186.999z"/>
<g>
</g>
<g>
</g>
<g>
</g>
<g>
</g>
<g>
</g>
<g>
</g>
<g>
</g>
<g>
</g>
<g>
</g>
<g>
</g>
<g>
</g>
<g>
</g>
<g>
</g>
<g>
</g>
<g>
</g>
</svg>
