<?xml version="1.0" encoding="iso-8859-1"?>
<!-- Generator: Adobe Illustrator 19.0.0, SVG Export Plug-In . SVG Version: 6.00 Build 0)  -->
<svg version="1.1" id="Layer_1" xmlns="http://www.w3.org/2000/svg" xmlns:xlink="http://www.w3.org/1999/xlink" x="0px" y="0px"
	 viewBox="0 0 512 512" style="enable-background:new 0 0 512 512;" xml:space="preserve">
<polygon style="fill:#F5F7FA;" points="448.016,500.016 58.672,500.016 58.672,12.016 374.672,12.016 448.016,93.344 "/>
<path style="fill:#ED5564;" d="M222,102l-34,76.672c0,0,62,1.328,76,0S222,102,222,102z"/>
<path style="fill:#DA4453;" d="M161.531,137.875l-18.203,41.062c0,0,33.219,0.719,40.719,0
	C191.547,178.25,161.531,137.875,161.531,137.875z"/>
<polygon style="fill:#CCD1D9;" points="384.672,15.328 375.328,87.328 448.016,87.328 "/>
<path d="M452.422,70.25l-64-64L382.172,0h-8.844H74.672H53.328v21.344v469.312V512h21.344h362.656h21.344v-21.344V85.344V76.5
	L452.422,70.25z M384,32l42.672,42.656H384V32z M74.672,490.656V21.344h288V96h74.656v394.656H74.672z"/>
<path d="M214.859,192H288L222.984,78.219l-37.266,65.219l-19.625-32.703L117.328,192h40.641H214.859z M222.984,121.219l28.25,49.438
	h-56.5L222.984,121.219z M155.016,170.656l11.078-18.469l7.484,12.484l-3.422,5.984h-15.14V170.656z"/>
<path d="M384,277.344H128c-5.891,0-10.672,4.766-10.672,10.656s4.781,10.656,10.672,10.656h256c5.891,0,10.672-4.766,10.672-10.656
	S389.891,277.344,384,277.344z"/>
<path d="M384,341.344H128c-5.891,0-10.672,4.766-10.672,10.656s4.781,10.656,10.672,10.656h256c5.891,0,10.672-4.766,10.672-10.656
	S389.891,341.344,384,341.344z"/>
<path d="M266.672,405.344H128c-5.891,0-10.672,4.766-10.672,10.656s4.781,10.656,10.672,10.656h138.672
	c5.891,0,10.656-4.766,10.656-10.656S272.562,405.344,266.672,405.344z"/>
<g>
</g>
<g>
</g>
<g>
</g>
<g>
</g>
<g>
</g>
<g>
</g>
<g>
</g>
<g>
</g>
<g>
</g>
<g>
</g>
<g>
</g>
<g>
</g>
<g>
</g>
<g>
</g>
<g>
</g>
</svg>
