<?xml version="1.0" encoding="iso-8859-1"?>
<!-- Generator: Adobe Illustrator 19.0.0, SVG Export Plug-In . SVG Version: 6.00 Build 0)  -->
<svg version="1.1" id="Layer_1" xmlns="http://www.w3.org/2000/svg" xmlns:xlink="http://www.w3.org/1999/xlink" x="0px" y="0px"
	 viewBox="0 0 512 512" style="enable-background:new 0 0 512 512;" xml:space="preserve">
<rect x="81.992" y="11" style="fill:#FFCE54;" width="345.5" height="58"/>
<polygon style="fill:#F6BB42;" points="429.336,77.328 84.008,77.328 65.336,502.672 446.008,502.672 "/>
<rect x="231.99" y="13.328" style="fill:#E6E9ED;" width="50.672" height="102"/>
<polygon style="fill:#DA4453;" points="201.836,295.766 157.492,381.188 250.227,381.188 "/>
<polygon style="fill:#ED5564;" points="283.43,251.266 220.633,372.266 351.992,372.266 "/>
<path d="M437.336,0H288.008h-64H74.664L53.336,512h405.328L437.336,0z M416.883,21.328L418.648,64h-130.64V21.328H416.883z
	 M266.664,21.328v85.328h-21.328V21.328H266.664z M224.008,21.328V64H93.352l1.781-42.672H224.008z M75.57,490.656L92.461,85.328
	h131.547V128c0,5.875,4.766,10.656,10.656,10.656s10.672-4.781,10.672-10.656c0,5.875,4.781,10.656,10.672,10.656
	s10.656-4.781,10.656-10.656c0,5.875,4.781,10.656,10.672,10.656s10.672-4.781,10.672-10.656V85.328h131.531l16.891,405.328H75.57z"
	/>
<path d="M283.945,227.547l-51.25,89.672l-26.969-44.969L138.664,384h55.875h78.219h100.578L283.945,227.547z M176.352,362.656
	l29.375-48.938l14.844,24.734l-13.844,24.203L176.352,362.656L176.352,362.656z M231.305,362.656l52.641-92.109l52.625,92.109
	H231.305z"/>
<g>
</g>
<g>
</g>
<g>
</g>
<g>
</g>
<g>
</g>
<g>
</g>
<g>
</g>
<g>
</g>
<g>
</g>
<g>
</g>
<g>
</g>
<g>
</g>
<g>
</g>
<g>
</g>
<g>
</g>
</svg>
