<?xml version="1.0" encoding="iso-8859-1"?>
<!-- Generator: Adobe Illustrator 19.0.0, SVG Export Plug-In . SVG Version: 6.00 Build 0)  -->
<svg version="1.1" id="Layer_1" xmlns="http://www.w3.org/2000/svg" xmlns:xlink="http://www.w3.org/1999/xlink" x="0px" y="0px"
	 viewBox="0 0 512 512" style="enable-background:new 0 0 512 512;" xml:space="preserve">
<polygon style="fill:#FC6E51;" points="446,500 61,500 61,97 151,129 365,129 446,97 "/>
<polygon style="fill:#E9573F;" points="446,91 376,123 120,123 70,91 70,9 446,9 "/>
<g>
	<path style="fill:#FFCE54;" d="M275.656,76.5c0,10.031-8.125,18.156-18.156,18.156s-18.156-8.125-18.156-18.156
		c0-10.047,8.125-18.172,18.156-18.172S275.656,66.453,275.656,76.5z"/>
	<path style="fill:#FFCE54;" d="M274.156,180.75c0,10.031-8.125,18.156-18.156,18.156s-18.156-8.125-18.156-18.156
		c0-10.047,8.125-18.172,18.156-18.172S274.156,170.703,274.156,180.75z"/>
	<path style="fill:#FFCE54;" d="M357.547,386.609l-32.016,72.203c0,0,58.375,1.266,71.562,0
		C410.281,457.562,357.547,386.609,357.547,386.609z"/>
</g>
<path style="fill:#F6BB42;" d="M300.594,420.391l-17.141,38.672c0,0,31.281,0.672,38.344,0
	C328.875,458.422,300.594,420.391,300.594,420.391z"/>
<path d="M326.5,426.844l-17.156-28.625l-42.688,71.125h35.562H352h64l-56.891-99.562L326.5,426.844z M309.344,439.688l4.969,8.312
	h-9.969L309.344,439.688z M338.984,448l20.125-35.219L379.25,448H338.984z"/>
<path d="M202.656,448h-96C100.781,448,96,452.781,96,458.656c0,5.906,4.781,10.688,10.656,10.688h96
	c5.906,0,10.688-4.781,10.688-10.688C213.344,452.781,208.562,448,202.656,448z"/>
<path d="M106.656,426.656h32c5.906,0,10.688-4.766,10.688-10.656s-4.781-10.656-10.688-10.656h-32
	C100.781,405.344,96,410.109,96,416S100.781,426.656,106.656,426.656z"/>
<path d="M448,0H64c-5.891,0-10.656,4.781-10.656,10.656v490.688C53.344,507.219,58.109,512,64,512h384
	c5.891,0,10.656-4.781,10.656-10.656V10.656C458.656,4.781,453.891,0,448,0z M437.344,21.344v61.609l-31.938,23.75
	c-7.594,5.672-22.594,10.641-32.062,10.641h-98.875l11.406-31.188c0.125-0.344,0.25-0.656,0.344-0.984l0.125-0.359l0,0
	c1.062-3.188,1.656-6.594,1.656-10.156c0-17.656-14.328-32-32-32s-32,14.344-32,32c0,3.562,0.594,6.969,1.656,10.172l0,0
	l0.125,0.328c0.094,0.344,0.219,0.656,0.344,1l11.406,31.188h-98.875c-9.469,0-24.469-4.969-32.062-10.641l-31.938-23.75v-61.61
	H437.344z M256,85.344c-5.875,0-10.656-4.797-10.656-10.688C245.344,68.781,250.125,64,256,64s10.656,4.781,10.656,10.656
	C266.656,80.547,261.875,85.344,256,85.344z M256,170.656c5.875,0,10.656,4.797,10.656,10.688c0,5.875-4.781,10.656-10.656,10.656
	s-10.656-4.781-10.656-10.656C245.344,175.453,250.125,170.656,256,170.656z M74.656,490.656V109.547l19.188,14.266
	c11.188,8.344,30.875,14.844,44.812,14.844h98.875l-11.406,31.188c-0.125,0.344-0.25,0.656-0.344,0.984l-0.125,0.359l0,0
	c-1.062,3.188-1.656,6.594-1.656,10.156c0,17.656,14.328,32,32,32s32-14.344,32-32c0-3.562-0.594-6.969-1.656-10.172l0,0
	l-0.125-0.328c-0.094-0.344-0.219-0.656-0.344-1l-11.406-31.188h98.875c13.938,0,33.625-6.5,44.812-14.844l19.188-14.266v381.109
	H74.656V490.656z"/>
<g>
</g>
<g>
</g>
<g>
</g>
<g>
</g>
<g>
</g>
<g>
</g>
<g>
</g>
<g>
</g>
<g>
</g>
<g>
</g>
<g>
</g>
<g>
</g>
<g>
</g>
<g>
</g>
<g>
</g>
</svg>
