<?xml version="1.0" encoding="iso-8859-1"?>
<!-- Generator: Adobe Illustrator 19.0.0, SVG Export Plug-In . SVG Version: 6.00 Build 0)  -->
<svg version="1.1" id="Layer_1" xmlns="http://www.w3.org/2000/svg" xmlns:xlink="http://www.w3.org/1999/xlink" x="0px" y="0px"
	 viewBox="0 0 512 512" style="enable-background:new 0 0 512 512;" xml:space="preserve">
<polygon style="fill:#37BC9B;" points="198,48 354,56 354,14 "/>
<rect x="136" y="49.44" style="fill:#48CFAD;" width="240" height="456.56"/>
<polygon style="fill:#CCD1D9;" points="216.438,212.078 184.406,273.781 251.406,273.781 "/>
<polygon style="fill:#E6E9ED;" points="275.391,179.938 230.016,267.328 324.906,267.328 "/>
<path d="M362.656,42.656V0L128,42.656V512h256V42.656H362.656z M341.328,25.562v17.094H247.25L341.328,25.562z M362.656,490.656
	H149.312V64h213.344V490.656z"/>
<path d="M268.188,277.344h73.125l-65-113.781l-37.281,65.203l-19.625-32.703l-48.75,81.281h40.625H268.188z M276.312,206.562
	L304.562,256h-56.5L276.312,206.562z M208.344,256l11.062-18.469l7.5,12.469l-3.438,6H208.344z"/>
<path d="M288,384h-64c-5.906,0-10.688,4.781-10.688,10.656c0,5.906,4.781,10.688,10.688,10.688h64
	c5.875,0,10.656-4.781,10.656-10.688C298.656,388.781,293.875,384,288,384z"/>
<path d="M181.312,362.656h149.344c5.891,0,10.656-4.766,10.656-10.656s-4.766-10.656-10.656-10.656H181.312
	c-5.875,0-10.656,4.766-10.656,10.656S175.438,362.656,181.312,362.656z"/>
<g>
</g>
<g>
</g>
<g>
</g>
<g>
</g>
<g>
</g>
<g>
</g>
<g>
</g>
<g>
</g>
<g>
</g>
<g>
</g>
<g>
</g>
<g>
</g>
<g>
</g>
<g>
</g>
<g>
</g>
</svg>
