<?xml version="1.0" encoding="iso-8859-1"?>
<!-- Generator: Adobe Illustrator 19.0.0, SVG Export Plug-In . SVG Version: 6.00 Build 0)  -->
<svg version="1.1" id="Layer_1" xmlns="http://www.w3.org/2000/svg" xmlns:xlink="http://www.w3.org/1999/xlink" x="0px" y="0px"
	 viewBox="0 0 512 512" style="enable-background:new 0 0 512 512;" xml:space="preserve">
<g>
	<rect x="42.05" y="10" style="fill:#F5F7FA;" width="432" height="241"/>
	<rect x="47.984" y="260.45" style="fill:#F5F7FA;" width="432" height="241"/>
</g>
<polygon style="fill:#DA4453;" points="156.906,92.406 117.359,168.578 200.062,168.578 "/>
<polygon style="fill:#ED5564;" points="225.641,61.234 169.656,169.125 286.797,169.125 "/>
<polygon style="fill:#F6BB42;" points="157.484,335.75 117.953,411.922 200.641,411.922 "/>
<polygon style="fill:#FFCE54;" points="226.234,304.578 170.234,412.469 287.375,412.469 "/>
<path d="M32.016,0v244.844v22.312V512h447.969V267.156v-22.312V0H32.016z M458.609,490.641H53.375V267.156h405.234V490.641z
	 M53.375,244.844V21.359h405.234v223.484H53.375V244.844z"/>
<path d="M183.594,116L161.5,79.25l-54.828,91.438h45.719h64.016h82.234L225.516,42.656L183.594,116z M144.375,149.328l17.125-28.656
	l9.984,16.625l-6.922,12.031H144.375z M189.141,149.328l36.375-63.656l36.375,63.656H189.141z"/>
<path d="M288.016,191.984L288.016,191.984L288.016,191.984H117.328c-5.844,0-10.656,4.812-10.656,10.719
	c0,5.828,4.812,10.641,10.656,10.641h170.688l0,0l0,0c5.906,0,10.625-4.812,10.625-10.641
	C298.641,196.797,293.922,191.984,288.016,191.984z"/>
<path d="M117.328,437.344c-5.844,0-10.656,4.734-10.656,10.641s4.812,10.641,10.656,10.641c5.906,0,10.719-4.734,10.719-10.641
	S123.234,437.344,117.328,437.344z"/>
<path d="M159.969,437.344c-5.828,0-10.641,4.734-10.641,10.641s4.812,10.641,10.641,10.641c5.906,0,10.719-4.734,10.719-10.641
	S165.875,437.344,159.969,437.344z"/>
<path d="M202.703,437.344c-5.906,0-10.719,4.734-10.719,10.641s4.812,10.641,10.719,10.641c5.828,0,10.641-4.734,10.641-10.641
	S208.531,437.344,202.703,437.344z"/>
<path d="M245.359,437.344c-5.906,0-10.719,4.734-10.719,10.641s4.812,10.641,10.719,10.641c5.812,0,10.625-4.734,10.625-10.641
	S251.172,437.344,245.359,437.344z"/>
<path d="M288.016,437.344c-5.906,0-10.656,4.734-10.656,10.641s4.75,10.641,10.656,10.641s10.625-4.734,10.625-10.641
	S293.922,437.344,288.016,437.344z"/>
<path d="M216.406,415.969h82.234L225.516,288l-41.922,73.359L161.5,324.531l-54.828,91.438h45.719H216.406z M261.891,394.688h-72.75
	l36.375-63.656L261.891,394.688z M144.375,394.688l17.125-28.656l9.984,16.547l-6.922,12.109H144.375z"/>
<path d="M434.203,107.188c-4.156-4.156-10.938-4.156-15.094,0l0,0l-37.688,37.766l-15.094-15.094l0,0
	c-4.156-4.156-10.938-4.156-15.094,0c-4.156,4.156-4.156,10.859,0,15.094l22.594,22.609c4.219,4.156,10.938,4.156,15.094,0
	l45.281-45.281C438.359,118.125,438.359,111.344,434.203,107.188z"/>
<path d="M373.828,411.094c4.219,4.156,10.938,4.219,15.094,0h0.062L404.016,396l15.094,15.094l0,0
	c4.156,4.156,10.938,4.156,15.094,0s4.156-10.875,0-15.094l0,0l0,0l-15.094-15.031l15.094-15.094l0,0l0,0
	c4.156-4.156,4.156-10.938,0-15.094s-10.938-4.156-15.094,0l0,0l-15.094,15.094l-15.031-15.094h-0.062
	c-4.156-4.156-10.875-4.156-15.094,0c-4.156,4.156-4.156,10.938,0,15.094l0,0l0,0l15.094,15.094L373.828,396l0,0l0,0
	C369.672,400.219,369.672,406.938,373.828,411.094z"/>
<g>
</g>
<g>
</g>
<g>
</g>
<g>
</g>
<g>
</g>
<g>
</g>
<g>
</g>
<g>
</g>
<g>
</g>
<g>
</g>
<g>
</g>
<g>
</g>
<g>
</g>
<g>
</g>
<g>
</g>
</svg>
