<?xml version="1.0" encoding="iso-8859-1"?>
<!-- Generator: Adobe Illustrator 19.0.0, SVG Export Plug-In . SVG Version: 6.00 Build 0)  -->
<svg version="1.1" id="Layer_1" xmlns="http://www.w3.org/2000/svg" xmlns:xlink="http://www.w3.org/1999/xlink" x="0px" y="0px"
	 viewBox="0 0 511.998 511.998" style="enable-background:new 0 0 511.998 511.998;" xml:space="preserve">
<rect x="12.672" y="43.329" style="fill:#F5F7FA;" width="403.5" height="293"/>
<polygon style="fill:#CCD1D9;" points="312.844,389.999 202.172,389.999 179.5,468.671 332.844,468.671 "/>
<rect x="8.844" y="337.329" style="fill:#E6E9ED;" width="494.33" height="43.34"/>
<rect x="413.17" y="43.329" style="fill:#434A54;" width="90" height="294"/>
<polygon style="fill:#DA4453;" points="179.703,182.671 151.516,236.983 210.469,236.983 "/>
<polygon style="fill:#ED5564;" points="231.578,154.39 191.656,231.311 275.156,231.311 "/>
<path d="M501.344,31.999H10.672C4.781,31.999,0,36.78,0,42.655v341.344c0,5.891,4.781,10.656,10.672,10.656h177.031l-12.766,64
	h-4.266c-5.891,0-10.672,4.781-10.672,10.688c0,5.875,4.781,10.656,10.672,10.656h170.672c5.891,0,10.656-4.781,10.656-10.656
	c0-5.906-4.766-10.688-10.656-10.688h-4.266l-12.797-64h177.062c5.891,0,10.656-4.766,10.656-10.656V42.655
	C512,36.78,507.234,31.999,501.344,31.999z M196.688,458.655l12.75-63.906l93.109-0.031l12.781,63.938L196.688,458.655
	L196.688,458.655z M490.672,159.999h-64V53.343h64V159.999z M426.672,181.343h64v149.312h-64V181.343z M405.344,53.343v277.312h-384
	V53.343H405.344z M256,373.343H21.344v-21.344H256h234.672v21.344H256z"/>
<path d="M266.672,362.655c0-5.875-4.766-10.656-10.672-10.656c-5.891,0-10.656,4.781-10.656,10.656
	c0,5.906,4.766,10.688,10.656,10.688C261.906,373.343,266.672,368.561,266.672,362.655z"/>
<path d="M225.531,245.124h73.141l-65.016-113.781l-37.266,65.219l-19.625-32.719L128,245.124h40.641H225.531z M233.656,174.343
	l28.25,49.438h-56.5L233.656,174.343z M165.688,223.78l11.078-18.469l7.484,12.484l-3.422,5.984h-15.14V223.78z"/>
<rect x="85.34" y="95.999" width="21.328" height="21.344"/>
<rect x="202.67" y="95.999" width="21.328" height="21.344"/>
<rect x="320" y="95.999" width="21.344" height="21.344"/>
<rect x="320" y="181.339" width="21.344" height="21.312"/>
<rect x="320" y="266.659" width="21.344" height="21.344"/>
<rect x="85.34" y="266.659" width="21.328" height="21.344"/>
<rect x="85.34" y="181.339" width="21.328" height="21.312"/>
<rect x="202.67" y="266.659" width="21.328" height="21.344"/>
<g>
</g>
<g>
</g>
<g>
</g>
<g>
</g>
<g>
</g>
<g>
</g>
<g>
</g>
<g>
</g>
<g>
</g>
<g>
</g>
<g>
</g>
<g>
</g>
<g>
</g>
<g>
</g>
<g>
</g>
</svg>
