<?xml version="1.0" encoding="iso-8859-1"?>
<!-- Generator: Adobe Illustrator 19.0.0, SVG Export Plug-In . SVG Version: 6.00 Build 0)  -->
<svg version="1.1" id="Layer_1" xmlns="http://www.w3.org/2000/svg" xmlns:xlink="http://www.w3.org/1999/xlink" x="0px" y="0px"
	 viewBox="0 0 512 512" style="enable-background:new 0 0 512 512;" xml:space="preserve">
<polygon style="fill:#DA4453;" points="348.008,225.359 348.008,269.359 418.68,269.359 418.68,388.031 348.008,388.031 
	348.008,432.031 462.68,432.031 462.68,414.031 462.68,388.031 462.68,269.359 462.68,244.047 462.68,225.359 "/>
<polygon style="fill:#ED5564;" points="326.023,498.844 65.336,498.844 53.336,471.344 53.336,160.016 350.758,160.016 
	350.758,470.016 "/>
<polygon style="fill:#CCD1D9;" points="156.93,307.891 114.883,388.891 202.805,388.891 "/>
<polygon style="fill:#E6E9ED;" points="234.289,265.703 174.742,380.422 299.289,380.422 "/>
<path d="M448.055,213.328h-85.141c-0.109,0-0.203,0.016-0.297,0.016v-64.016h-320v320C42.617,492.89,61.726,512,85.289,512h234.672
	c23.562,0,42.656-19.109,42.656-42.672v-21.344c0.094,0,0.188,0.016,0.297,0.016h85.141c11.781,0,21.328-9.547,21.328-21.328v-192
	C469.383,222.891,459.836,213.328,448.055,213.328z M341.289,469.328c0,11.766-9.562,21.344-21.328,21.344H85.289
	c-11.766,0-21.328-9.578-21.328-21.344V170.672h277.328V469.328z M362.914,277.328h42.469l0,0V384h-42.469V277.328z
	 M448.055,426.672h-85.141v-21.344h42.469c11.781,0,21.328-9.547,21.328-21.328V277.328c0-11.781-9.547-21.328-21.328-21.328
	h-42.469v-21.328h85.141l0,0V426.672z"/>
<path d="M272.32,109.562c2.328,8.094,6.828,13.828,7.328,14.469v-0.016c1.969,2.438,4.953,3.984,8.312,3.984
	c5.891,0,10.656-4.766,10.656-10.672c0-2.531-0.875-4.859-2.359-6.688l0,0l0.062,0.062c-0.031-0.031-2.547-3.281-3.625-7.469
	c-1.109-4.344-0.266-7.516,2.812-10.625c8.672-8.688,11.531-19.984,8.078-31.812c-2.328-7.938-6.812-13.531-7.391-14.25h-0.016
	c0,0,0-0.016-0.016-0.031l0,0c-1.953-2.344-4.906-3.844-8.203-3.844c-5.891,0-10.672,4.781-10.672,10.656
	c0,2.578,0.922,4.938,2.438,6.781l-0.047-0.031c0.031,0.031,2.5,3.156,3.547,7.172c1.094,4.141,0.25,7.234-2.828,10.312
	C271.758,86.234,268.883,97.609,272.32,109.562z M279.727,60.109c0,0.016,0.016,0.031,0.016,0.031l0,0L279.727,60.109z"/>
<path d="M184.133,102.656c3.172,11.953,9.312,20.234,10,21.141h0.016c1.938,2.547,5.016,4.203,8.469,4.203
	c5.891,0,10.672-4.766,10.672-10.672c0-2.406-0.812-4.625-2.156-6.406h0.016c-0.047-0.062-4.5-6.094-6.547-14.312
	c-2.453-9.844-0.484-18.188,6.016-25.547c11.391-12.891,15.016-28.703,10.5-45.719c-3.188-11.953-9.312-20.234-10-21.141h-0.016
	C209.148,1.656,206.086,0,202.617,0c-5.891,0-10.656,4.766-10.656,10.672c0,2.406,0.797,4.625,2.156,6.406h-0.016
	c0.047,0.062,4.484,6.094,6.547,14.312c2.453,9.844,0.484,18.188-6.016,25.547C183.242,69.828,179.602,85.641,184.133,102.656z"/>
<path d="M101.648,109.562c2.328,8.094,6.828,13.828,7.344,14.469v-0.016c1.953,2.438,4.938,3.984,8.297,3.984
	c5.891,0,10.672-4.766,10.672-10.672c0-2.531-0.891-4.859-2.375-6.688h0.016l0.047,0.062c-0.031-0.031-2.531-3.281-3.609-7.469
	c-1.125-4.344-0.281-7.516,2.812-10.625c8.656-8.688,11.516-19.984,8.062-31.812c-2.328-7.938-6.812-13.531-7.391-14.25l0,0
	c-0.016,0-0.016-0.016-0.016-0.031l0,0c-1.969-2.344-4.922-3.844-8.219-3.844c-5.891,0-10.672,4.781-10.672,10.656
	c0,2.578,0.922,4.938,2.438,6.781l-0.031-0.031c0.016,0.031,2.484,3.156,3.547,7.172c1.078,4.141,0.234,7.234-2.844,10.312
	C101.086,86.234,98.211,97.609,101.648,109.562z M109.055,60.109c0.016,0.016,0.016,0.031,0.031,0.031h-0.016L109.055,60.109z"/>
<path d="M217.867,394.672h91.422l-81.266-142.219l-46.594,81.5l-24.516-40.875L95.961,394.672h50.781H217.867z M272.523,373.328
	h-89.016l44.516-77.875L272.523,373.328z M133.633,373.328l23.281-38.781l12.391,20.656l-10.359,18.125H133.633z"/>
<g>
</g>
<g>
</g>
<g>
</g>
<g>
</g>
<g>
</g>
<g>
</g>
<g>
</g>
<g>
</g>
<g>
</g>
<g>
</g>
<g>
</g>
<g>
</g>
<g>
</g>
<g>
</g>
<g>
</g>
</svg>
