<?xml version="1.0" encoding="iso-8859-1"?>
<!-- Generator: Adobe Illustrator 19.0.0, SVG Export Plug-In . SVG Version: 6.00 Build 0)  -->
<svg version="1.1" id="Layer_1" xmlns="http://www.w3.org/2000/svg" xmlns:xlink="http://www.w3.org/1999/xlink" x="0px" y="0px"
	 viewBox="0 0 512 512" style="enable-background:new 0 0 512 512;" xml:space="preserve">
<rect x="64.01" y="44.44" style="fill:#4FC2E9;" width="379" height="458"/>
<polygon style="fill:#CCD1D9;" points="191.617,258.75 139.523,359.109 248.477,359.109 "/>
<polygon style="fill:#E6E9ED;" points="287.477,206.484 213.711,348.625 368.023,348.625 "/>
<path d="M228.461,283.75l-31.891-53.156l-79.234,132.062h66.031h92.453h118.844L289.008,177.781L228.461,283.75z M155.008,341.328
	l41.562-69.266l19.75,32.922l-20.75,36.344H155.008z M220.133,341.328l68.875-120.562l68.906,120.562H220.133z"/>
<path d="M394.664,32.672V10.875c0-6-4.766-10.875-10.656-10.875c-5.906,0-10.672,4.875-10.672,10.875v21.797h-42.672V10.875
	c0-6-4.766-10.875-10.656-10.875c-5.906,0-10.672,4.875-10.672,10.875v21.797h-42.672V10.875c0-6-4.766-10.875-10.656-10.875
	c-5.906,0-10.672,4.875-10.672,10.875v21.797h-42.672V10.875c0-6-4.766-10.875-10.656-10.875c-5.906,0-10.672,4.875-10.672,10.875
	v21.797h-42.672V10.875c0-6-4.766-10.875-10.656-10.875c-5.906,0-10.672,4.875-10.672,10.875v21.797h-64V512h405.328V32.672H394.664
	z M437.336,490.656H74.664V54h42.672v20.875l0,0c0,6.031,4.766,10.906,10.672,10.906c5.891,0,10.656-4.875,10.656-10.906l0,0V54
	h42.672v20.875l0,0c0,6.031,4.766,10.906,10.672,10.906c5.891,0,10.656-4.875,10.656-10.906l0,0V54h42.672v20.875l0,0
	c0,6.031,4.766,10.906,10.672,10.906c5.891,0,10.656-4.875,10.656-10.906l0,0V54h42.672v20.875l0,0
	c0,6.031,4.766,10.906,10.672,10.906c5.891,0,10.656-4.875,10.656-10.906l0,0V54h42.672v20.875l0,0
	c0,6.031,4.766,10.906,10.672,10.906c5.891,0,10.656-4.875,10.656-10.906l0,0V54h42.672V490.656z"/>
<g>
</g>
<g>
</g>
<g>
</g>
<g>
</g>
<g>
</g>
<g>
</g>
<g>
</g>
<g>
</g>
<g>
</g>
<g>
</g>
<g>
</g>
<g>
</g>
<g>
</g>
<g>
</g>
<g>
</g>
</svg>
