<?xml version="1.0" encoding="iso-8859-1"?>
<!-- Generator: Adobe Illustrator 19.0.0, SVG Export Plug-In . SVG Version: 6.00 Build 0)  -->
<svg version="1.1" id="Layer_1" xmlns="http://www.w3.org/2000/svg" xmlns:xlink="http://www.w3.org/1999/xlink" x="0px" y="0px"
	 viewBox="0 0 512 512" style="enable-background:new 0 0 512 512;" xml:space="preserve">
<rect x="246.67" y="86.67" style="fill:#F5F7FA;" width="256" height="371.98"/>
<rect x="313.5" y="130" style="fill:#ED5564;" width="40.5" height="38.5"/>
<rect x="399.5" y="132.5" style="fill:#FC6E51;" width="40.5" height="38.5"/>
<rect x="393.5" y="213" style="fill:#A0D468;" width="40.5" height="38.5"/>
<rect x="395.75" y="303.75" style="fill:#4FC2E9;" width="40.5" height="38.5"/>
<rect x="395.75" y="386.09" style="fill:#AC92EB;" width="40.5" height="38.5"/>
<rect x="310.42" y="386.09" style="fill:#5D9CEC;" width="40.5" height="38.5"/>
<rect x="310.42" y="300.75" style="fill:#48CFAD;" width="40.5" height="38.5"/>
<rect x="310.42" y="213" style="fill:#FFCE54;" width="40.5" height="38.5"/>
<polygon style="fill:#CCD1D9;" points="246.672,468 6.672,459.266 6.672,87.281 246.672,96.016 "/>
<path style="fill:#F5F7FA;" d="M58,48l-7,381l193,39V86.672C244,86.672,61,48,58,48z"/>
<path d="M501.328,74.656H256L42.672,32v42.656h-32C4.781,74.656,0,79.438,0,85.344v384C0,475.219,4.781,480,10.672,480h490.656
	c5.891,0,10.672-4.781,10.672-10.656v-384C512,79.438,507.219,74.656,501.328,74.656z M64,58.031l170.672,34.125v361.812L64,419.844
	V58.031z M21.328,458.656V96h21.344v341.344l106.656,21.312H21.328z M490.672,458.656H256V96h234.672V458.656z"/>
<path d="M362.672,117.344h-64v64h64V117.344z M341.328,160H320v-21.344h21.328V160z"/>
<path d="M448,117.344h-64v64h64V117.344z M426.672,160h-21.344v-21.344h21.344V160z"/>
<path d="M362.672,202.656h-64v64h64V202.656z M341.328,245.344H320V224h21.328V245.344z"/>
<path d="M448,202.656h-64v64h64V202.656z M426.672,245.344h-21.344V224h21.344V245.344z"/>
<path d="M362.672,288h-64v64h64V288z M341.328,330.656H320v-21.312h21.328V330.656z"/>
<path d="M448,288h-64v64h64V288z M426.672,330.656h-21.344v-21.312h21.344V330.656z"/>
<path d="M362.672,437.344v-64h-64v64H362.672z M320,394.656h21.328V416H320V394.656z"/>
<path d="M448,373.344h-64v64h64V373.344z M426.672,416h-21.344v-21.344h21.344V416z"/>
<g>
</g>
<g>
</g>
<g>
</g>
<g>
</g>
<g>
</g>
<g>
</g>
<g>
</g>
<g>
</g>
<g>
</g>
<g>
</g>
<g>
</g>
<g>
</g>
<g>
</g>
<g>
</g>
<g>
</g>
</svg>
