<?xml version="1.0" encoding="iso-8859-1"?>
<!-- Generator: Adobe Illustrator 19.0.0, SVG Export Plug-In . SVG Version: 6.00 Build 0)  -->
<svg version="1.1" id="Layer_1" xmlns="http://www.w3.org/2000/svg" xmlns:xlink="http://www.w3.org/1999/xlink" x="0px" y="0px"
	 viewBox="0 0 512 512" style="enable-background:new 0 0 512 512;" xml:space="preserve">
<rect x="363.67" y="141.67" style="fill:#F5F7FA;" width="84.33" height="227.67"/>
<rect x="363.67" y="179.5" style="fill:#ED5564;" width="84.33" height="152.02"/>
<path style="fill:#FFCE54;" d="M272,399.016l-29.344-4.672l-28,62.672L251,501.344c0,0,45.656-41.672,45.656-43
	S272,399.016,272,399.016z"/>
<polygon style="fill:#434A54;" points="296.672,29.344 259.344,7.594 242,12 209.969,33.078 206,393.344 299.344,393.344 
	306,90.672 "/>
<rect x="91.25" y="462" style="fill:#656D78;" width="29" height="20.75"/>
<rect x="62" y="12" style="fill:#EC87C0;" width="90" height="62"/>
<rect x="62" y="79.34" style="fill:#FFCE54;" width="90" height="370.67"/>
<path d="M53.344,448l53.312,64L160,448V0H53.344V448z M98.875,469.344h15.578l-7.797,9.344L98.875,469.344z M131.938,448.375V448
	H81.094l-6.438-7.719V85.344H96V416l0,0c0,5.891,4.781,10.656,10.656,10.656c5.906,0,10.688-4.766,10.688-10.656v-0.016V85.344
	h21.312v354.938L131.938,448.375z M138.656,21.344V64h-64V21.344H138.656z"/>
<path d="M256,0c-29.453,0-53.344,23.875-53.344,53.344v352h20.375l-20.375,56.875L256,512l53.344-49.781l-20.375-56.875h20.375v-352
	C309.344,23.875,285.453,0,256,0z M224,53.344c0-17.656,14.344-32,32-32s32,14.344,32,32V384h-64V53.344z M256,482.812
	l-28.531-26.609l17.875-49.891v31.031c0,5.875,4.766,10.656,10.656,10.656c5.89,0,10.656-4.781,10.656-10.656v-31.031l17.875,49.891
	L256,482.812z"/>
<path d="M448,128h-85.344c-5.875,0-10.656,4.781-10.656,10.656v32V224v64v53.344v32c0,5.875,4.781,10.656,10.656,10.656H448
	c5.891,0,10.656-4.781,10.656-10.656v-32V288v-64v-53.344v-32C458.656,132.781,453.891,128,448,128z M437.344,362.656h-64v-21.312
	h64V362.656z M437.344,320h-64V192h64V320z M437.344,170.656h-64v-21.312h64V170.656z"/>
<g>
</g>
<g>
</g>
<g>
</g>
<g>
</g>
<g>
</g>
<g>
</g>
<g>
</g>
<g>
</g>
<g>
</g>
<g>
</g>
<g>
</g>
<g>
</g>
<g>
</g>
<g>
</g>
<g>
</g>
</svg>
