<?xml version="1.0" encoding="iso-8859-1"?>
<!-- Generator: Adobe Illustrator 19.0.0, SVG Export Plug-In . SVG Version: 6.00 Build 0)  -->
<svg version="1.1" id="Layer_1" xmlns="http://www.w3.org/2000/svg" xmlns:xlink="http://www.w3.org/1999/xlink" x="0px" y="0px"
	 viewBox="0 0 512 512" style="enable-background:new 0 0 512 512;" xml:space="preserve">
<rect y="10.938" style="fill:#FC6E51;" width="512" height="490.12"/>
<polygon style="fill:#F5F7FA;" points="434,469.438 97,469.438 97,42.562 369,42.562 434,127 "/>
<polygon style="fill:#ED5564;" points="294,164.672 232,278.672 359.328,278.672 "/>
<polygon style="fill:#DA4453;" points="210.266,205.594 168.344,282.672 254.438,282.672 "/>
<polygon style="fill:#CCD1D9;" points="372,47.328 359.328,117.328 431.328,111.328 "/>
<path d="M468.797,74.875h21.312H512V53.562h-21.891V10.938h-21.312v42.625h-53.266h-21.312h-1.828L377.328,38.5l-6.234-6.25h-8.828
	h-21.328V10.938h-21.297V32.25H191.797V10.938h-21.328V32.25h-63.922H85.234v21.312H42.625V10.938H21.312v42.625H0v21.312h21.312
	h21.312h42.609V117.5H42.625H21.312H0v21.312h21.312v42.609H0v21.297h21.312h21.312h42.609v42.625H42.625H21.312H0v21.312h21.312
	v42.625H0v21.312h21.312h21.312h42.609v42.609H42.625H21.312H0v21.312h21.312v42.609H0v21.312h21.312h21.312h42.609v21.312h10.656
	v21.312h21.328V479.75h127.844v21.312h21.312V479.75h127.844v21.312h21.312V479.75h10.656H447.5v-21.312h21.297h21.312H512v-21.312
	h-21.891v-42.609H512v-21.312h-21.891h-21.312H447.5v-42.609h21.297h21.312H512v-21.312h-21.891v-42.625H512v-21.312h-21.891
	h-21.312H447.5v-42.625h21.297h21.312H512v-21.297h-21.891v-42.609H512V117.5h-21.891h-21.312H447.5v-8.844l-6.25-6.234
	l-25.719-25.719v-1.828C415.531,74.875,468.797,74.875,468.797,74.875z M372.922,64.219l42.609,42.625h-42.609V64.219z
	 M42.625,181.422v-42.609h42.609v42.609H42.625z M42.625,309.281v-42.625h42.609v42.625H42.625z M42.625,437.125v-42.609h42.609
	v42.609H42.625z M106.547,458.438V53.562h245.062v74.594h74.578v330.281L106.547,458.438L106.547,458.438z M468.797,394.516v42.609
	H447.5v-42.609H468.797z M468.797,266.656v42.625H447.5v-42.625H468.797z M468.797,138.812v42.609H447.5v-42.609L468.797,138.812
	L468.797,138.812z"/>
<path d="M244.156,224.297l-25.734-42.875L154.5,287.969h223.75L293,138.812L244.156,224.297z M192.125,266.656l26.297-43.812
	l13.609,22.672l-12.094,21.141h-27.812V266.656z M244.484,266.656L293,181.75l48.516,84.906H244.484z"/>
<path d="M308.984,373.203H223.75c-5.891,0-10.656,4.766-10.656,10.656s4.766,10.656,10.656,10.656h85.234
	c5.891,0,10.656-4.766,10.656-10.656S314.875,373.203,308.984,373.203z"/>
<path d="M351.609,330.594H181.125c-5.875,0-10.656,4.766-10.656,10.656c0,5.875,4.781,10.656,10.656,10.656h170.484
	c5.875,0,10.656-4.781,10.656-10.656C362.266,335.359,357.484,330.594,351.609,330.594z"/>
<g>
</g>
<g>
</g>
<g>
</g>
<g>
</g>
<g>
</g>
<g>
</g>
<g>
</g>
<g>
</g>
<g>
</g>
<g>
</g>
<g>
</g>
<g>
</g>
<g>
</g>
<g>
</g>
<g>
</g>
</svg>
