<?xml version="1.0" encoding="iso-8859-1"?>
<!-- Generator: Adobe Illustrator 19.0.0, SVG Export Plug-In . SVG Version: 6.00 Build 0)  -->
<svg version="1.1" id="Layer_1" xmlns="http://www.w3.org/2000/svg" xmlns:xlink="http://www.w3.org/1999/xlink" x="0px" y="0px"
	 viewBox="0 0 512 512" style="enable-background:new 0 0 512 512;" xml:space="preserve">
<rect x="5.344" y="272.83" style="fill:#CCD1D9;" width="492" height="164.5"/>
<rect x="72" y="74.67" style="fill:#FFCE54;" width="366" height="232.33"/>
<polygon style="fill:#DA4453;" points="203.094,179.5 158.75,264.922 251.484,264.922 "/>
<polygon style="fill:#ED5564;" points="284.688,135 221.891,256 353.25,256 "/>
<path d="M437.344,384H74.656C68.781,384,64,388.781,64,394.656c0,5.906,4.781,10.688,10.656,10.688h362.688
	c5.875,0,10.656-4.781,10.656-10.688C448,388.781,443.219,384,437.344,384z"/>
<path d="M501.344,256H448V64H64v192H10.656C4.781,256,0,260.781,0,266.656v170.688C0,443.219,4.781,448,10.656,448h490.688
	c5.875,0,10.656-4.781,10.656-10.656V266.656C512,260.781,507.219,256,501.344,256z M85.344,85.344h341.312v213.312H85.344V85.344z
	 M490.656,426.656H21.344V277.344H64V320h384v-42.656h42.656V426.656z"/>
<path d="M234.812,205.969l-24.531-40.891l-60.938,101.578h50.781h71.109h91.422l-81.25-142.219L234.812,205.969z M187.016,245.344
	l23.266-38.797l12.406,20.656l-10.375,18.141L187.016,245.344L187.016,245.344z M236.891,245.344l44.516-77.906l44.5,77.906H236.891
	z"/>
<g>
</g>
<g>
</g>
<g>
</g>
<g>
</g>
<g>
</g>
<g>
</g>
<g>
</g>
<g>
</g>
<g>
</g>
<g>
</g>
<g>
</g>
<g>
</g>
<g>
</g>
<g>
</g>
<g>
</g>
</svg>
