<?xml version="1.0" encoding="iso-8859-1"?>
<!-- Generator: Adobe Illustrator 19.0.0, SVG Export Plug-In . SVG Version: 6.00 Build 0)  -->
<svg version="1.1" id="Layer_1" xmlns="http://www.w3.org/2000/svg" xmlns:xlink="http://www.w3.org/1999/xlink" x="0px" y="0px"
	 viewBox="0 0 512 512" style="enable-background:new 0 0 512 512;" xml:space="preserve">
<polygon style="fill:#656D78;" points="485,233 21,233 21,83 70,59 461,59 485,91.984 "/>
<polygon style="fill:#F5F7FA;" points="394.672,350.016 319.344,350.016 316,428.016 117.328,422.016 117.328,192.016 
	394.672,192.016 "/>
<g>
	<polygon style="fill:#CCD1D9;" points="323.344,350.016 323.344,422.672 390.672,354.016 	"/>
	<rect x="21" y="237" style="fill:#CCD1D9;" width="54" height="214"/>
	<rect x="439.66" y="237" style="fill:#CCD1D9;" width="54" height="214"/>
</g>
<path d="M437.344,117.344c-5.906,0-10.688,4.766-10.688,10.656s4.781,10.656,10.688,10.656c5.875,0,10.656-4.766,10.656-10.656
	S443.219,117.344,437.344,117.344z"/>
<path d="M394.656,117.344C388.781,117.344,384,122.11,384,128s4.781,10.656,10.656,10.656c5.906,0,10.688-4.766,10.688-10.656
	S400.562,117.344,394.656,117.344z"/>
<path d="M352,117.344c-5.891,0-10.656,4.766-10.656,10.656s4.766,10.656,10.656,10.656s10.656-4.766,10.656-10.656
	S357.891,117.344,352,117.344z"/>
<path d="M160,117.344H74.656C68.781,117.344,64,122.109,64,128c0,5.891,4.781,10.656,10.656,10.656H160
	c5.891,0,10.656-4.766,10.656-10.656S165.891,117.344,160,117.344z"/>
<path d="M501.344,437.344v-192V224V96c0-23.562-19.109-42.656-42.688-42.656H53.344c-23.562,0-42.688,19.094-42.688,42.656v128
	v21.344v192C4.781,437.344,0,442.109,0,448s4.781,10.656,10.656,10.656h74.688C91.219,458.656,96,453.891,96,448
	s-4.781-10.656-10.656-10.656v-192h21.312V416v21.344H128h192h8.844l6.25-6.25l64-64l6.25-6.25V352V245.344h21.312v192
	C420.781,437.344,416,442.11,416,448s4.781,10.656,10.656,10.656h74.688c5.875,0,10.656-4.766,10.656-10.656
	S507.219,437.344,501.344,437.344z M64,437.344H32v-192h32V437.344z M384,341.344h-74.656V416H128V202.656h256V341.344z
	 M330.656,405.344v-42.688h42.688L330.656,405.344z M405.344,202.656c5.875,0,10.656-4.766,10.656-10.656
	s-4.781-10.656-10.656-10.656H384H128h-21.344C100.781,181.344,96,186.109,96,192s4.781,10.656,10.656,10.656V224H32V96
	c0-11.766,9.562-21.344,21.344-21.344h405.312C470.438,74.656,480,84.234,480,96v128h-74.656V202.656z M480,437.344h-32v-192h32
	V437.344z"/>
<g>
</g>
<g>
</g>
<g>
</g>
<g>
</g>
<g>
</g>
<g>
</g>
<g>
</g>
<g>
</g>
<g>
</g>
<g>
</g>
<g>
</g>
<g>
</g>
<g>
</g>
<g>
</g>
<g>
</g>
</svg>
