<?xml version="1.0" encoding="iso-8859-1"?>
<!-- Generator: Adobe Illustrator 19.0.0, SVG Export Plug-In . SVG Version: 6.00 Build 0)  -->
<svg version="1.1" id="Layer_1" xmlns="http://www.w3.org/2000/svg" xmlns:xlink="http://www.w3.org/1999/xlink" x="0px" y="0px"
	 viewBox="0 0 512 512" style="enable-background:new 0 0 512 512;" xml:space="preserve">
<path style="fill:#48CFAD;" d="M366,58.656C348,55,321,52,321,52l-24,40l-34,12l-58-22l-12-30h-39L13,131c0,0,32,98,37,99
	s66-23.984,66-23.984L121,465h276c0,0-5-257,0-254s64,19,64,19l42-99C503,131,384,62.312,366,58.656z"/>
<polygon style="fill:#CCD1D9;" points="218,256 188.422,312.953 250.266,312.953 "/>
<polygon style="fill:#E6E9ED;" points="272.406,226.328 230.531,307 318.109,307 "/>
<path d="M362.672,42.656h-32H320h-10.656C309.344,72.078,285.406,96,256,96s-53.328-23.922-53.328-53.344H192h-10.656h-32L0,128
	l42.672,117.344l64-21.344v245.344h298.672V224l64,21.344L512,128L362.672,42.656z M456.375,218.531l-44.281-14.781L384,194.406V224
	v224H128V224v-29.594l-28.078,9.344l-44.297,14.781l-29.438-80.938L155,64h29.438c9.188,30.844,37.75,53.344,71.562,53.344
	c33.828,0,62.391-22.5,71.562-53.344H357l128.812,73.594L456.375,218.531z"/>
<path d="M239.062,271.219l-19.625-32.688l-48.766,81.25h40.641h56.875h73.156l-65.031-113.766L239.062,271.219z M208.344,298.453
	l11.094-18.469l7.484,12.484l-3.422,5.984L208.344,298.453L208.344,298.453z M248.062,298.453L276.312,249l28.266,49.453H248.062z"
	/>
<g>
</g>
<g>
</g>
<g>
</g>
<g>
</g>
<g>
</g>
<g>
</g>
<g>
</g>
<g>
</g>
<g>
</g>
<g>
</g>
<g>
</g>
<g>
</g>
<g>
</g>
<g>
</g>
<g>
</g>
</svg>
