<?xml version="1.0" encoding="iso-8859-1"?>
<!-- Generator: Adobe Illustrator 19.0.0, SVG Export Plug-In . SVG Version: 6.00 Build 0)  -->
<svg version="1.1" id="Layer_1" xmlns="http://www.w3.org/2000/svg" xmlns:xlink="http://www.w3.org/1999/xlink" x="0px" y="0px"
	 viewBox="0 0 512 512" style="enable-background:new 0 0 512 512;" xml:space="preserve">
<rect x="99.06" y="414" style="fill:#434A54;" width="314.67" height="80.75"/>
<path style="fill:#FFCE54;" d="M275.344,459.828c0,12.078-9.797,21.859-21.875,21.859c-12.062,0-21.859-9.781-21.859-21.859
	s9.797-21.859,21.859-21.859C265.547,437.969,275.344,447.75,275.344,459.828z"/>
<rect x="99.06" y="11.328" style="fill:#F5F7FA;" width="308.94" height="402.67"/>
<rect x="139.34" y="47.984" style="fill:#ED5564;" width="233.31" height="202.69"/>
<path d="M384,0H128c-23.562,0-42.656,19.094-42.656,42.656v426.688C85.344,492.906,104.438,512,128,512h256
	c23.562,0,42.656-19.094,42.656-42.656V42.656C426.656,19.094,407.562,0,384,0z M128,21.344h256
	c11.766,0,21.344,9.562,21.344,21.312v362.688H106.656V42.656C106.656,30.906,116.234,21.344,128,21.344z M384,490.656H256H128
	c-11.766,0-21.344-9.562-21.344-21.312v-42.688H256h149.344v42.688C405.344,481.094,395.766,490.656,384,490.656z"/>
<path d="M288,458.656c0-17.656-14.328-32-32-32s-32,14.344-32,32c0,17.688,14.328,32,32,32S288,476.344,288,458.656z M256,469.344
	c-5.875,0-10.656-4.797-10.656-10.688c0-5.875,4.781-10.656,10.656-10.656s10.656,4.781,10.656,10.656
	C266.656,464.547,261.875,469.344,256,469.344z"/>
<path d="M384,42.656H128V256h256V42.656z M362.656,234.656H149.344V64h213.312V234.656z"/>
<path d="M373.344,277.344H138.656C132.781,277.344,128,282.11,128,288s4.781,10.656,10.656,10.656h234.688
	c5.875,0,10.656-4.766,10.656-10.656S379.219,277.344,373.344,277.344z"/>
<path d="M373.344,320H138.656c-5.875,0-10.656,4.781-10.656,10.656c0,5.906,4.781,10.688,10.656,10.688h234.688
	c5.875,0,10.656-4.781,10.656-10.688C384,324.781,379.219,320,373.344,320z"/>
<path d="M256,362.656c-0.156,0-0.312,0.031-0.469,0.031v-0.031H138.656c-5.875,0-10.656,4.781-10.656,10.688
	c0,5.875,4.781,10.656,10.656,10.656h116.875v-0.031c0.156,0.016,0.312,0.031,0.469,0.031c5.891,0,10.656-4.781,10.656-10.656
	C266.656,367.438,261.891,362.656,256,362.656z"/>
<g>
</g>
<g>
</g>
<g>
</g>
<g>
</g>
<g>
</g>
<g>
</g>
<g>
</g>
<g>
</g>
<g>
</g>
<g>
</g>
<g>
</g>
<g>
</g>
<g>
</g>
<g>
</g>
<g>
</g>
</svg>
