<?xml version="1.0" encoding="iso-8859-1"?>
<!-- Generator: Adobe Illustrator 19.0.0, SVG Export Plug-In . SVG Version: 6.00 Build 0)  -->
<svg version="1.1" id="Layer_1" xmlns="http://www.w3.org/2000/svg" xmlns:xlink="http://www.w3.org/1999/xlink" x="0px" y="0px"
	 viewBox="0 0 512 512" style="enable-background:new 0 0 512 512;" xml:space="preserve">
<rect x="11" y="420" style="fill:#656D78;" width="228" height="37"/>
<rect x="39.33" y="377.34" style="fill:#CCD1D9;" width="174" height="34"/>
<g>
	<polygon style="fill:#967ADC;" points="46.672,368 213.328,368 176,277.344 188,238.672 190.875,209.25 128,178.672 109.5,182.5 
		87,193 68,216.5 76,273.344 70.672,326.672 	"/>
	<circle style="fill:#967ADC;" cx="383" cy="171" r="118"/>
</g>
<path d="M384,42.562c-70.688,0-128,57.312-128,128s57.312,128,128,128c70.703,0,128-57.312,128-128S454.703,42.562,384,42.562z
	 M466.484,238.219c-4.188-3.719-10.594-3.562-14.594,0.438s-4.156,10.391-0.469,14.578c-5.328,4.375-11.031,8.172-17.031,11.391
	c-2.453-5-8.422-7.328-13.656-5.156c-5.219,2.156-7.797,8-6,13.281c-6.516,1.953-13.234,3.281-20.094,3.969
	c-0.391-5.562-4.984-9.938-10.641-9.938c-5.641,0-10.25,4.375-10.625,9.938c-6.875-0.688-13.594-2.016-20.109-3.969
	c1.812-5.281-0.766-11.125-6-13.281s-11.188,0.156-13.656,5.156c-5.984-3.219-11.688-7.016-17.031-11.391
	c3.688-4.188,3.547-10.578-0.453-14.578c-4.016-4-10.406-4.156-14.609-0.438c-4.391-5.344-8.203-11.031-11.453-17.031
	c5.078-2.422,7.422-8.406,5.25-13.672c-2.188-5.266-8.109-7.859-13.422-5.953c-1.969-6.531-3.312-13.266-4.016-20.156
	c5.641-0.281,10.125-4.922,10.125-10.625c0-5.719-4.5-10.375-10.156-10.656c0.656-6.875,1.984-13.625,3.938-20.172
	c5.344,1.969,11.328-0.609,13.531-5.922s-0.234-11.391-5.422-13.766c3.219-6.016,7.047-11.75,11.438-17.109
	c4.188,3.891,10.719,3.812,14.797-0.266s4.156-10.641,0.234-14.812c5.359-4.422,11.078-8.25,17.094-11.5
	c2.359,5.266,8.469,7.719,13.812,5.516c5.359-2.219,7.938-8.312,5.875-13.688c6.547-1.969,13.312-3.312,20.219-3.984
	c0.156,5.734,4.859,10.359,10.641,10.359s10.484-4.625,10.656-10.359c6.906,0.672,13.672,2.016,20.219,3.984
	c-2.062,5.375,0.516,11.469,5.859,13.672c5.359,2.219,11.469-0.234,13.812-5.5c6.016,3.25,11.734,7.078,17.094,11.5
	c-3.906,4.172-3.828,10.734,0.25,14.812c4.062,4.078,10.609,4.156,14.797,0.266c4.391,5.359,8.203,11.094,11.438,17.109
	c-5.203,2.375-7.641,8.453-5.422,13.766c2.188,5.312,8.188,7.891,13.531,5.922c1.953,6.547,3.266,13.297,3.938,20.172
	c-5.656,0.281-10.172,4.938-10.172,10.656c0,5.703,4.484,10.344,10.125,10.625c-0.688,6.891-2.031,13.625-4,20.156
	c-5.312-1.906-11.25,0.688-13.422,5.953c-2.188,5.266,0.172,11.25,5.234,13.672C474.703,227.188,470.875,232.875,466.484,238.219z"
	/>
<path d="M369.172,170.938L352,142.328l-42.656,71.109h35.547h49.781h64l-56.891-99.562L369.172,170.938z M352,183.797l5,8.312
	h-9.984L352,183.797z M381.656,192.109l20.125-35.234l20.125,35.234L381.656,192.109L381.656,192.109z"/>
<path d="M245.344,405.438h-21.469v-14.156v-28.5c-44.094-46.312-38.828-83.719-29.578-104.219
	c5.344-8.281,8.375-17.703,8.375-27.688c0-33.188-33.438-60.094-74.672-60.094s-74.656,26.906-74.656,60.094
	c0,9.984,3.016,19.406,8.375,27.688c9.25,20.5,14.5,57.906-29.594,104.219v28.5v14.156H10.672C4.781,405.438,0,410.219,0,416.109
	v42.672c0,5.875,4.781,10.656,10.672,10.656h234.672c5.891,0,10.656-4.781,10.656-10.656v-42.672
	C256,410.219,251.234,405.438,245.344,405.438z M87.953,304.594c3.234-18.844,0.891-37.797-6.797-54.812l-0.656-1.453l-0.859-1.344
	c-3.297-5.109-4.969-10.516-4.969-16.109c0-9.469,4.938-18.656,13.906-25.875c10.188-8.188,24.547-12.891,39.422-12.891
	s29.25,4.703,39.422,12.891c8.969,7.219,13.922,16.406,13.922,25.875c0,5.594-1.672,11-4.969,16.109l-0.859,1.344l-0.656,1.453
	c-7.688,17.016-10.047,35.969-6.797,54.812c3.359,19.609,12.625,39.125,27.594,58.188H60.344
	C75.312,343.719,84.578,324.203,87.953,304.594z M53.469,384.109h149.078v21.328H53.469V384.109z M234.672,448.109H21.344v-21.328
	h213.328V448.109z"/>
<g>
</g>
<g>
</g>
<g>
</g>
<g>
</g>
<g>
</g>
<g>
</g>
<g>
</g>
<g>
</g>
<g>
</g>
<g>
</g>
<g>
</g>
<g>
</g>
<g>
</g>
<g>
</g>
<g>
</g>
</svg>
