<?xml version="1.0" encoding="iso-8859-1"?>
<!-- Generator: Adobe Illustrator 19.0.0, SVG Export Plug-In . SVG Version: 6.00 Build 0)  -->
<svg version="1.1" id="Layer_1" xmlns="http://www.w3.org/2000/svg" xmlns:xlink="http://www.w3.org/1999/xlink" x="0px" y="0px"
	 viewBox="0 0 512 512" style="enable-background:new 0 0 512 512;" xml:space="preserve">
<path style="fill:#AAB2BC;" d="M415.969,178.477c0,0-83.969-3.109-82.625,0c1.328,3.109-5.344,188.438-5.344,188.438h173.344V273.93
	L415.969,178.477z"/>
<rect x="16" y="92.91" style="fill:#FC6E51;" width="312" height="274"/>
<path style="fill:#FFCE54;" d="M197.5,173.414l-65,100.516c0,0,98-1.516,122.5-0.016S197.5,173.414,197.5,173.414z"/>
<polygon style="fill:#F6BB42;" points="123.156,217.148 84.5,276.93 157.344,276.914 "/>
<g>
	<path style="fill:#656D78;" d="M152.547,370.93c0,25.344-20.547,45.875-45.891,45.875s-45.891-20.531-45.891-45.875
		c0-25.359,20.547-45.891,45.891-45.891S152.547,345.57,152.547,370.93z"/>
	<path style="fill:#656D78;" d="M461.859,373.586c0,25.344-20.547,45.875-45.891,45.875s-45.891-20.531-45.891-45.875
		c0-25.359,20.547-45.891,45.891-45.891S461.859,348.227,461.859,373.586z"/>
</g>
<path d="M415.969,360.258c-5.891,0-10.656,4.781-10.656,10.672s4.766,10.672,10.656,10.672s10.672-4.781,10.672-10.672
	S421.859,360.258,415.969,360.258z"/>
<path d="M106.656,360.258c-5.891,0-10.656,4.781-10.656,10.672s4.766,10.672,10.656,10.672s10.656-4.781,10.656-10.672
	S112.547,360.258,106.656,360.258z"/>
<path d="M149.484,224.383l-24.531-40.891L64,285.07h50.797h71.109h91.422l-81.266-142.219L149.484,224.383z M101.688,263.742
	l23.266-38.797l12.391,20.656L127,263.742H101.688z M151.562,263.742l44.5-77.891l44.5,77.891H151.562z"/>
<path d="M512,274.414l-85.359-106.656l-85.328,0.078v-64.078c0-11.781-9.547-21.344-21.328-21.344H21.344
	C9.562,82.414,0,91.977,0,103.758v255.969c0,11.781,9.547,21.344,21.328,21.344h28.578c4.781,27,28.375,47.516,56.75,47.516
	s51.969-20.516,56.75-47.516H298.64h59.547c4.797,27.562,28.844,48.516,57.781,48.516s52.984-20.953,57.781-48.516h38.031
	L512,274.414z M106.656,407.258c-20.031,0-36.328-16.297-36.328-36.328c0-20.047,16.297-36.328,36.328-36.328
	s36.328,16.281,36.328,36.328C142.984,390.961,126.688,407.258,106.656,407.258z M163.219,359.727
	c-5.203-26.484-28.547-46.469-56.562-46.469s-51.359,19.984-56.562,46.469H21.328l0.016-255.969h298.641l-0.016,255.969H163.219z
	 M415.969,408.258c-20.594,0-37.328-16.75-37.328-37.328s16.734-37.328,37.328-37.328s37.344,16.75,37.344,37.328
	S436.562,408.258,415.969,408.258z M490.484,359.727h-16.922c-5.219-27.031-29.031-47.469-57.594-47.469
	s-52.375,20.438-57.594,47.469h-17.062l0,0V189.164l75.094-0.062l74.25,92.781L490.484,359.727z"/>
<g>
</g>
<g>
</g>
<g>
</g>
<g>
</g>
<g>
</g>
<g>
</g>
<g>
</g>
<g>
</g>
<g>
</g>
<g>
</g>
<g>
</g>
<g>
</g>
<g>
</g>
<g>
</g>
<g>
</g>
</svg>
